<?xml version="1.0" encoding="UTF-8" standalone="no"?>
<svg
   xmlns:dc="http://purl.org/dc/elements/1.1/"
   xmlns:cc="http://creativecommons.org/ns#"
   xmlns:rdf="http://www.w3.org/1999/02/22-rdf-syntax-ns#"
   xmlns:svg="http://www.w3.org/2000/svg"
   xmlns="http://www.w3.org/2000/svg"
   xmlns:xlink="http://www.w3.org/1999/xlink"
   id="svg8"
   version="1.1"
   viewBox="0 0 105.83329 30.427082"
   height="115"
   width="400">
  <defs
     id="defs2">
    <marker
       style="overflow:visible"
       id="marker4806"
       refX="0"
       refY="0"
       orient="auto">
      <path
         transform="scale(0.2)"
         style="fill:#2e6075;fill-opacity:1;fill-rule:evenodd;stroke:#2e6075;stroke-width:1.00000003pt;stroke-opacity:1"
         d="M 0,-7.0710768 -7.0710894,0 0,7.0710589 7.0710462,0 Z"
         id="path4628" />
    </marker>
    <marker
       style="overflow:visible"
       id="CurveOut"
       refX="0"
       refY="0"
       orient="auto">
      <path
         transform="scale(0.6)"
         style="fill:none;fill-rule:evenodd;stroke:#008fc0;stroke-width:1.00000003pt;stroke-opacity:1"
         d="m -5.4129913,-5.0456926 c 2.76,0 4.99999999,2.24 4.99999999,5.00000002 0,2.75999998 -2.23999999,4.99999998 -4.99999999,4.99999998"
         id="path7873" />
    </marker>
    <marker
       style="overflow:visible"
       id="StopM"
       refX="0"
       refY="0"
       orient="auto">
      <path
         transform="scale(0.4)"
         style="fill:none;fill-opacity:0.75;fill-rule:evenodd;stroke:#008fc0;stroke-width:1.00000003pt;stroke-opacity:1"
         d="M 0,5.65 V -5.65"
         id="path7858" />
    </marker>
    <marker
       style="overflow:visible"
       id="StopS"
       refX="0"
       refY="0"
       orient="auto">
      <path
         transform="scale(0.2)"
         style="fill:none;fill-opacity:0.75;fill-rule:evenodd;stroke:#008fc0;stroke-width:1.00000003pt;stroke-opacity:1"
         d="M 0,5.65 V -5.65"
         id="path7861" />
    </marker>
    <marker
       style="overflow:visible"
       id="EmptyTriangleOutS"
       refX="0"
       refY="0"
       orient="auto">
      <path
         transform="matrix(0.2,0,0,0.2,-0.6,0)"
         style="fill:#ffffff;fill-rule:evenodd;stroke:#008fc0;stroke-width:1.00000003pt;stroke-opacity:1"
         d="M 5.77,0 -2.88,5 V -5 Z"
         id="path7852" />
    </marker>
    <marker
       style="overflow:visible"
       id="EmptyTriangleInS"
       refX="0"
       refY="0"
       orient="auto">
      <path
         transform="matrix(-0.2,0,0,-0.2,0.6,0)"
         style="fill:#ffffff;fill-rule:evenodd;stroke:#008fc0;stroke-width:1.00000003pt;stroke-opacity:1"
         d="M 5.77,0 -2.88,5 V -5 Z"
         id="path7843" />
    </marker>
    <marker
       style="overflow:visible"
       id="Arrow1Send"
       refX="0"
       refY="0"
       orient="auto">
      <path
         transform="matrix(-0.2,0,0,-0.2,-1.2,0)"
         style="fill:#008fc0;fill-opacity:1;fill-rule:evenodd;stroke:#008fc0;stroke-width:1.00000003pt;stroke-opacity:1"
         d="M 0,0 5,-5 -12.5,0 5,5 Z"
         id="path7701" />
    </marker>
    <marker
       style="overflow:visible"
       id="Tail"
       refX="0"
       refY="0"
       orient="auto">
      <g
         style="fill:#008fc0;fill-opacity:1;stroke:#008fc0;stroke-opacity:1"
         transform="scale(-1.2)"
         id="g7734">
        <path
           style="fill:#008fc0;fill-opacity:1;fill-rule:evenodd;stroke:#008fc0;stroke-width:0.80000001;stroke-linecap:round;stroke-opacity:1"
           d="M -3.8048674,-3.9585227 0.54352094,0"
           id="path7722" />
        <path
           style="fill:#008fc0;fill-opacity:1;fill-rule:evenodd;stroke:#008fc0;stroke-width:0.80000001;stroke-linecap:round;stroke-opacity:1"
           d="M -1.2866832,-3.9585227 3.0617053,0"
           id="path7724" />
        <path
           style="fill:#008fc0;fill-opacity:1;fill-rule:evenodd;stroke:#008fc0;stroke-width:0.80000001;stroke-linecap:round;stroke-opacity:1"
           d="M 1.3053582,-3.9585227 5.6537466,0"
           id="path7726" />
        <path
           style="fill:#008fc0;fill-opacity:1;fill-rule:evenodd;stroke:#008fc0;stroke-width:0.80000001;stroke-linecap:round;stroke-opacity:1"
           d="M -3.8048674,4.1775838 0.54352094,0.21974226"
           id="path7728" />
        <path
           style="fill:#008fc0;fill-opacity:1;fill-rule:evenodd;stroke:#008fc0;stroke-width:0.80000001;stroke-linecap:round;stroke-opacity:1"
           d="M -1.2866832,4.1775838 3.0617053,0.21974226"
           id="path7730" />
        <path
           style="fill:#008fc0;fill-opacity:1;fill-rule:evenodd;stroke:#008fc0;stroke-width:0.80000001;stroke-linecap:round;stroke-opacity:1"
           d="M 1.3053582,4.1775838 5.6537466,0.21974226"
           id="path7732" />
      </g>
    </marker>
    <marker
       style="overflow:visible"
       id="DiamondS"
       refX="0"
       refY="0"
       orient="auto">
      <path
         transform="scale(0.2)"
         style="fill:#008fc0;fill-opacity:1;fill-rule:evenodd;stroke:#008fc0;stroke-width:1.00000003pt;stroke-opacity:1"
         d="M 0,-7.0710768 -7.0710894,0 0,7.0710589 7.0710462,0 Z"
         id="path7771" />
    </marker>
    <marker
       style="overflow:visible"
       id="Arrow2Sstart"
       refX="0"
       refY="0"
       orient="auto">
      <path
         transform="matrix(0.3,0,0,0.3,-0.69,0)"
         d="M 8.7185878,4.0337352 -2.2072895,0.01601326 8.7185884,-4.0017078 c -1.7454984,2.3720609 -1.7354408,5.6174519 -6e-7,8.035443 z"
         style="fill:#008fc0;fill-opacity:1;fill-rule:evenodd;stroke:#008fc0;stroke-width:0.625;stroke-linejoin:round;stroke-opacity:1"
         id="path7716" />
    </marker>
    <linearGradient
       id="linearGradient8135-6">
      <stop
         id="stop8131"
         offset="0"
         style="stop-color:#6700ff;stop-opacity:1" />
      <stop
         id="stop8133"
         offset="1"
         style="stop-color:#e500ff;stop-opacity:1" />
    </linearGradient>
    <linearGradient
       id="linearGradient8121">
      <stop
         id="stop8117"
         offset="0"
         style="stop-color:#000000;stop-opacity:1;" />
      <stop
         id="stop8119"
         offset="1"
         style="stop-color:#000000;stop-opacity:0;" />
    </linearGradient>
    <marker
       style="overflow:visible"
       id="DotS"
       refX="0"
       refY="0"
       orient="auto">
      <path
         transform="matrix(0.2,0,0,0.2,1.48,0.2)"
         style="fill:#6700ff;fill-opacity:1;fill-rule:evenodd;stroke:#6700ff;stroke-width:1.00000003pt;stroke-opacity:1"
         d="m -2.5,-1 c 0,2.76 -2.24,5 -5,5 -2.76,0 -5,-2.24 -5,-5 0,-2.76 2.24,-5 5,-5 2.76,0 5,2.24 5,5 z"
         id="path7753" />
    </marker>
    <marker
       orient="auto"
       refY="0"
       refX="0"
       id="InfiniteLineEnd"
       style="overflow:visible">
      <g
         style="fill:#008fc0;fill-opacity:1;stroke:#008fc0;stroke-opacity:1"
         id="g7927">
        <circle
           style="fill:#008fc0;fill-opacity:1;stroke:#008fc0;stroke-opacity:1"
           cx="3"
           cy="0"
           r="0.80000001"
           id="circle7921" />
        <circle
           style="fill:#008fc0;fill-opacity:1;stroke:#008fc0;stroke-opacity:1"
           cx="6.5"
           cy="0"
           r="0.80000001"
           id="circle7923" />
        <circle
           style="fill:#008fc0;fill-opacity:1;stroke:#008fc0;stroke-opacity:1"
           cx="10"
           cy="0"
           r="0.80000001"
           id="circle7925" />
      </g>
    </marker>
    <marker
       style="overflow:visible"
       id="DotL"
       refX="0"
       refY="0"
       orient="auto">
      <path
         transform="matrix(0.8,0,0,0.8,5.92,0.8)"
         style="fill:#008fc0;fill-opacity:1;fill-rule:evenodd;stroke:#008fc0;stroke-width:1.00000003pt;stroke-opacity:1"
         d="m -2.5,-1 c 0,2.76 -2.24,5 -5,5 -2.76,0 -5,-2.24 -5,-5 0,-2.76 2.24,-5 5,-5 2.76,0 5,2.24 5,5 z"
         id="path7747" />
    </marker>
    <marker
       style="overflow:visible"
       id="Arrow1Lend"
       refX="0"
       refY="0"
       orient="auto">
      <path
         transform="matrix(-0.8,0,0,-0.8,-10,0)"
         style="fill:#008fc0;fill-opacity:1;fill-rule:evenodd;stroke:#008fc0;stroke-width:1.00000003pt;stroke-opacity:1"
         d="M 0,0 5,-5 -12.5,0 5,5 Z"
         id="path7689" />
    </marker>
    <radialGradient
       gradientUnits="userSpaceOnUse"
       gradientTransform="matrix(1,0,0,0.98605151,0,2.4893399)"
       r="1.0734116"
       fy="178.46667"
       fx="198.96666"
       cy="178.46667"
       cx="198.96666"
       id="radialGradient8123"
       xlink:href="#linearGradient8121" />
    <linearGradient
       gradientTransform="translate(-43.391665,12.700001)"
       gradientUnits="userSpaceOnUse"
       y2="170.69888"
       x2="195.80675"
       y1="170.69888"
       x1="150.00111"
       id="linearGradient8145"
       xlink:href="#linearGradient8135-6" />
  </defs>
  <metadata
     id="metadata5">
    <rdf:RDF>
      <cc:Work
         rdf:about="">
        <dc:format>image/svg+xml</dc:format>
        <dc:type
           rdf:resource="http://purl.org/dc/dcmitype/StillImage" />
        <dc:title></dc:title>
      </cc:Work>
    </rdf:RDF>
  </metadata>
  <g
     transform="translate(-106.00953,-168.02464)"
     id="layer1">
    <path
       id="path6167"
       d="M 50.799999,178.46667 V 144.6 c 0,0 -5.291667,25.4 7.408333,25.4 12.7,0 12.7,-25.4 12.7,-25.4 v 21.16667 c 0,4.23333 4.233333,4.23333 4.233333,4.23333 0,0 4.233334,0 4.233334,-4.23333 v 12.7 c 0,0 0,-8.46667 4.233333,-8.46667 4.233334,0 4.233334,-4.23333 4.233334,-4.23333"
       style="fill:none;stroke:#000000;stroke-width:4.23333311;stroke-linecap:butt;stroke-linejoin:miter;stroke-miterlimit:4;stroke-dasharray:none;stroke-opacity:1" />
    <path
       id="path6169"
       d="M 101.6,153.06667 V 119.2 c 0,0 0,25.4 8.46667,25.4 8.46666,0 8.46666,-25.4 8.46666,-25.4 v 16.93333 c 0,0 0,8.46667 4.23334,8.46667 C 127,144.6 127,140.36667 127,140.36667 v 8.46666 c 0,0 0,-4.23333 4.23333,-4.23333 4.23333,0 12.7,0 12.7,0"
       style="fill:none;stroke:#000000;stroke-width:2.11666656;stroke-linecap:round;stroke-linejoin:round;stroke-miterlimit:4;stroke-dasharray:none;stroke-opacity:1" />
    <path
       id="path6169-3"
       d="m 152.4,144.59999 v -25.4 c 0,0 0,21.16667 8.46667,21.16667 8.46666,0 8.46666,-21.16667 8.46666,-21.16667 v 12.7 c 0,0 0,8.46667 4.23334,8.46667 4.23333,0 4.23333,-4.23333 4.23333,-4.23333 v 8.46666 c 0,0 0,-4.23333 4.23333,-4.23333 h 12.7"
       style="fill:none;stroke:#008fc0;stroke-width:2.11666656;stroke-linecap:round;stroke-linejoin:round;stroke-miterlimit:4;stroke-dasharray:none;stroke-opacity:1" />
    <g
       transform="translate(1.5830871,-0.98767829)"
       id="g5255">
      <path
         style="fill:none;stroke:#000000;stroke-width:0.26458332px;stroke-linecap:butt;stroke-linejoin:miter;stroke-opacity:1"
         d="M 155.57499,182.7 Z"
         id="path6227" />
      <path
         style="fill:none;stroke:url(#linearGradient8145);stroke-width:2.64599991;stroke-linecap:round;stroke-linejoin:miter;stroke-miterlimit:4;stroke-dasharray:none;stroke-opacity:1;marker-start:url(#DotS)"
         d="M 109.00833,195.4 V 194.03929 170 c 0,0 0,21.16667 8.46667,21.16667 8.46666,0 8.46666,-21.16667 8.46666,-21.16667 v 12.7 c 0,0 0,8.46667 4.23334,8.46667 4.23333,0 4.23333,-4.23333 4.23333,-4.23333 V 195.4 c 0,0 0,-4.23333 4.23333,-4.23333 l 68.79608,0"
         id="path6169-3-3" />
      <g
         id="text4574"
         style="font-style:normal;font-weight:normal;font-size:10.58333302px;line-height:1.25;font-family:sans-serif;letter-spacing:0px;word-spacing:0px;fill:#e500ff;fill-opacity:1;stroke:none;stroke-width:0.26458332"
         aria-label="micro-signals
">
        <path
           id="path5341"
           style="font-style:normal;font-variant:normal;font-weight:normal;font-stretch:normal;font-family:Arvo;-inkscape-font-specification:Arvo;fill:#e500ff;fill-opacity:1;stroke-width:0.26458332"
           d="m 138.62928,181.57966 h 1.70532 v 0.62528 h 0.0103 q 0.1757,-0.14986 0.3669,-0.27905 0.19637,-0.13436 0.40825,-0.23255 0.21187,-0.0982 0.43925,-0.15503 0.23254,-0.0568 0.48059,-0.0568 0.57877,0 0.99735,0.21704 0.41858,0.21188 0.64596,0.66663 0.19637,-0.1757 0.41341,-0.3359 0.21704,-0.16536 0.44958,-0.28422 0.23772,-0.11886 0.4961,-0.1912 0.25838,-0.0724 0.53743,-0.0724 0.43408,0 0.78032,0.11886 0.34623,0.11885 0.58911,0.36173 0.24288,0.24288 0.3669,0.62529 0.12919,0.37723 0.12919,0.894 v 2.56315 h 0.74414 v 0.88883 h -2.50114 v -0.88883 h 0.75448 v -2.4443 q 0,-0.61494 -0.31006,-0.93017 -0.31006,-0.3204 -0.894,-0.3204 -0.34623,0 -0.70797,0.16537 -0.36173,0.16536 -0.62012,0.41858 v 3.11092 h 0.73898 v 0.88883 h -2.49597 v -0.88883 h 0.75447 v -2.4443 q 0,-0.61494 -0.31523,-0.93017 -0.31005,-0.3204 -0.894,-0.3204 -0.33589,0 -0.67696,0.1602 -0.34106,0.1602 -0.64595,0.39791 v 3.13676 h 0.75447 v 0.88883 h -2.50114 v -0.88883 h 0.74414 v -3.57601 h -0.74414 z" />
        <path
           id="path5343"
           style="font-style:normal;font-variant:normal;font-weight:normal;font-stretch:normal;font-family:Arvo;-inkscape-font-specification:Arvo;fill:#e500ff;fill-opacity:1;stroke-width:0.26458332"
           d="m 149.19195,181.57966 h 1.74666 v 4.46484 h 0.80615 v 0.88883 h -2.54248 v -0.88883 h 0.76481 v -3.57601 h -0.77514 z m 0.59427,-1.89653 q 0,-0.13436 0.0517,-0.25321 0.0568,-0.12403 0.14469,-0.21188 0.093,-0.093 0.21705,-0.14469 0.12402,-0.0568 0.26355,-0.0568 0.13435,0 0.25321,0.0568 0.12402,0.0517 0.21187,0.14469 0.093,0.0879 0.1447,0.21188 0.0568,0.11885 0.0568,0.25321 0,0.13953 -0.0568,0.26355 -0.0517,0.12402 -0.1447,0.22221 -0.0879,0.093 -0.21187,0.14986 -0.11886,0.0517 -0.25321,0.0517 -0.13953,0 -0.26355,-0.0517 -0.12403,-0.0568 -0.21705,-0.14986 -0.0878,-0.0982 -0.14469,-0.22221 -0.0517,-0.12402 -0.0517,-0.26355 z" />
        <path
           id="path5345"
           style="font-style:normal;font-variant:normal;font-weight:normal;font-stretch:normal;font-family:Arvo;-inkscape-font-specification:Arvo;fill:#e500ff;fill-opacity:1;stroke-width:0.26458332"
           d="m 156.48866,183.00593 q -0.21704,-0.38758 -0.55294,-0.56845 -0.33073,-0.18086 -0.76998,-0.18086 -0.3359,0 -0.63045,0.13952 -0.29456,0.13953 -0.51677,0.39791 -0.21704,0.25838 -0.34623,0.63045 -0.12402,0.36691 -0.12402,0.82166 0,0.44958 0.12402,0.81132 0.12919,0.36173 0.3514,0.62012 0.22221,0.25321 0.5116,0.39274 0.29455,0.13436 0.63045,0.13436 0.49609,0 0.863,-0.23771 0.3669,-0.24288 0.58394,-0.70797 l 0.79582,0.39274 q -0.15503,0.33073 -0.38241,0.59428 -0.22737,0.26355 -0.51676,0.44958 -0.28422,0.18604 -0.63045,0.28422 -0.34107,0.10336 -0.72347,0.10336 -0.55811,0 -1.03353,-0.20671 -0.47026,-0.21187 -0.81649,-0.58911 -0.34107,-0.37724 -0.53227,-0.89917 -0.1912,-0.52193 -0.1912,-1.14205 0,-0.62012 0.20154,-1.14205 0.20154,-0.52193 0.55293,-0.894 0.3514,-0.37724 0.82166,-0.58911 0.47026,-0.21188 1.00769,-0.21188 0.50643,0 0.95601,0.1757 0.45476,0.1757 0.79582,0.53227 h 0.5426 v 0.88884 z" />
        <path
           id="path5347"
           style="font-style:normal;font-variant:normal;font-weight:normal;font-stretch:normal;font-family:Arvo;-inkscape-font-specification:Arvo;fill:#e500ff;fill-opacity:1;stroke-width:0.26458332"
           d="m 162.26091,182.71137 h -0.98185 v -0.33073 q -0.17053,0 -0.3514,0.0672 -0.1757,0.062 -0.33073,0.19637 -0.15503,0.12919 -0.27388,0.3359 -0.11369,0.20154 -0.16537,0.48059 v 2.58382 h 0.90951 v 0.88883 h -2.65617 v -0.88883 h 0.73897 l 0.005,-3.57601 h -0.74414 v -0.88883 h 1.71049 v 0.73897 q 0.093,-0.16537 0.20671,-0.30489 0.11885,-0.1447 0.25838,-0.24805 0.14469,-0.10852 0.31522,-0.16536 0.1757,-0.062 0.37724,-0.062 0.26872,0 0.50643,0 0.23771,0 0.47542,0.0103 z" />
        <path
           id="path5349"
           style="font-style:normal;font-variant:normal;font-weight:normal;font-stretch:normal;font-family:Arvo;-inkscape-font-specification:Arvo;fill:#e500ff;fill-opacity:1;stroke-width:0.26458332"
           d="m 163.29961,184.2565 q 0.005,-0.63562 0.20154,-1.15756 0.20154,-0.52193 0.5581,-0.894 0.35657,-0.37724 0.8475,-0.57878 0.49092,-0.20153 1.08004,-0.20153 0.59427,0 1.0852,0.20153 0.49609,0.20154 0.84749,0.57361 0.3514,0.36691 0.54777,0.88884 0.19637,0.52193 0.19637,1.15755 0,0.62528 -0.19637,1.15238 -0.19637,0.52194 -0.54777,0.89917 -0.3514,0.37724 -0.84749,0.58912 -0.49093,0.2067 -1.0852,0.2067 -0.60462,0 -1.09554,-0.2067 -0.49093,-0.20671 -0.84233,-0.57878 -0.3514,-0.37724 -0.54777,-0.89917 -0.19637,-0.52193 -0.20154,-1.15238 z m 1.01803,0 q 0,0.45992 0.12919,0.83199 0.13436,0.37207 0.36173,0.63562 0.23255,0.25838 0.53227,0.40307 0.30489,0.13953 0.64596,0.13953 0.35656,0 0.66145,-0.13953 0.31006,-0.13952 0.53744,-0.39791 0.22738,-0.26355 0.35657,-0.63562 0.12919,-0.37207 0.12919,-0.83715 0,-0.48576 -0.12919,-0.863 -0.12919,-0.37724 -0.35657,-0.63045 -0.22221,-0.25322 -0.53227,-0.38241 -0.31006,-0.12919 -0.66662,-0.12919 -0.34107,0 -0.64596,0.12919 -0.29972,0.12919 -0.53227,0.38241 -0.22737,0.25321 -0.36173,0.63045 -0.12919,0.37724 -0.12919,0.863 z" />
        <path
           id="path5351"
           style="font-style:normal;font-variant:normal;font-weight:normal;font-stretch:normal;font-family:Arvo;-inkscape-font-specification:Arvo;fill:#e500ff;fill-opacity:1;stroke-width:0.26458332"
           d="m 169.66615,184.37018 v -0.88883 h 2.84737 v 0.88883 z" />
        <path
           id="path5353"
           style="font-style:normal;font-variant:normal;font-weight:normal;font-stretch:normal;font-family:Arvo;-inkscape-font-specification:Arvo;fill:#e500ff;fill-opacity:1;stroke-width:0.26458332"
           d="m 176.59079,183.01626 q 0,-0.21704 -0.10335,-0.3669 -0.0982,-0.15503 -0.25838,-0.24805 -0.1602,-0.0982 -0.35657,-0.13952 -0.19637,-0.0465 -0.38241,-0.0465 -0.2067,0 -0.3824,0.0465 -0.17053,0.0465 -0.29456,0.13435 -0.12402,0.0879 -0.19637,0.21704 -0.0672,0.12403 -0.0672,0.27906 0,0.26871 0.1602,0.42891 0.16536,0.15503 0.54777,0.28939 l 1.02836,0.36173 q 0.66146,0.22221 0.96635,0.60462 0.30489,0.3824 0.30489,0.91467 0,0.35657 -0.14469,0.65629 -0.13953,0.29456 -0.40308,0.50643 -0.25838,0.20671 -0.62528,0.3204 -0.36691,0.11885 -0.81649,0.11885 -0.62529,0 -1.01803,-0.20154 -0.39274,-0.20153 -0.60461,-0.53226 h -0.53744 v -0.88884 h 1.0697 q 0,0.22221 0.093,0.38241 0.0982,0.15503 0.25322,0.25321 0.16019,0.0982 0.35656,0.1447 0.20154,0.0465 0.40825,0.0465 0.20154,0 0.38757,-0.0465 0.18604,-0.0517 0.32556,-0.1447 0.1447,-0.0982 0.22738,-0.23254 0.0827,-0.13436 0.0827,-0.30489 0,-0.25839 -0.17053,-0.43925 -0.16537,-0.18087 -0.56844,-0.32556 l -1.02319,-0.38241 q -0.62529,-0.22221 -0.93018,-0.56327 -0.29972,-0.34624 -0.29972,-0.863 0,-0.34106 0.12402,-0.63045 0.12919,-0.28939 0.3669,-0.4961 0.24288,-0.21187 0.58911,-0.33073 0.34624,-0.11885 0.79065,-0.11885 0.57361,0 0.96118,0.1602 0.38758,0.16019 0.69764,0.54777 h 0.50126 v 0.88883 z" />
        <path
           id="path5355"
           style="font-style:normal;font-variant:normal;font-weight:normal;font-stretch:normal;font-family:Arvo;-inkscape-font-specification:Arvo;fill:#e500ff;fill-opacity:1;stroke-width:0.26458332"
           d="m 178.5855,181.57966 h 1.74666 v 4.46484 h 0.80616 v 0.88883 h -2.54248 v -0.88883 h 0.76481 v -3.57601 h -0.77515 z m 0.59428,-1.89653 q 0,-0.13436 0.0517,-0.25321 0.0568,-0.12403 0.14469,-0.21188 0.093,-0.093 0.21704,-0.14469 0.12402,-0.0568 0.26355,-0.0568 0.13436,0 0.25321,0.0568 0.12403,0.0517 0.21188,0.14469 0.093,0.0879 0.14469,0.21188 0.0568,0.11885 0.0568,0.25321 0,0.13953 -0.0568,0.26355 -0.0517,0.12402 -0.14469,0.22221 -0.0879,0.093 -0.21188,0.14986 -0.11885,0.0517 -0.25321,0.0517 -0.13953,0 -0.26355,-0.0517 -0.12402,-0.0568 -0.21704,-0.14986 -0.0879,-0.0982 -0.14469,-0.22221 -0.0517,-0.12402 -0.0517,-0.26355 z" />
        <path
           id="path5357"
           style="font-style:normal;font-variant:normal;font-weight:normal;font-stretch:normal;font-family:Arvo;-inkscape-font-specification:Arvo;fill:#e500ff;fill-opacity:1;stroke-width:0.26458332"
           d="m 185.93389,186.46308 q -0.26355,0.27905 -0.61495,0.43408 -0.34623,0.15503 -0.79065,0.15503 -0.5426,0 -1.01286,-0.18604 -0.46509,-0.1912 -0.81132,-0.55293 -0.34106,-0.36691 -0.53743,-0.89401 -0.19121,-0.53226 -0.19121,-1.21439 0,-0.62012 0.18604,-1.12655 0.18603,-0.51159 0.5271,-0.86816 0.34106,-0.36174 0.82165,-0.55811 0.48059,-0.20153 1.0697,-0.20153 0.40308,0 0.72347,0.093 0.32557,0.0879 0.63046,0.31006 v -0.27388 h 0.96118 v 5.1418 q 0,1.27124 -0.60462,1.92236 -0.59944,0.65113 -1.87068,0.65113 -0.27905,0 -0.58395,-0.0413 -0.30489,-0.0414 -0.60461,-0.13436 -0.29456,-0.0879 -0.57878,-0.22738 -0.27905,-0.13953 -0.51676,-0.34106 l 0.51676,-0.78032 q 0.15503,0.13436 0.3514,0.24805 0.20154,0.11369 0.42892,0.1912 0.22737,0.0827 0.47025,0.12919 0.24288,0.0465 0.48576,0.0465 0.39791,0 0.6873,-0.0827 0.29455,-0.0827 0.48059,-0.29456 0.1912,-0.2067 0.28422,-0.56327 0.093,-0.35657 0.093,-0.90434 z m -1.28158,-0.24805 q 0.23771,0 0.43408,-0.0465 0.19637,-0.0465 0.35657,-0.11885 0.1602,-0.0775 0.27905,-0.1757 0.12403,-0.0982 0.21188,-0.20671 v -2.93005 q -0.26355,-0.23255 -0.60978,-0.3359 -0.34107,-0.10335 -0.7028,-0.10335 -0.34107,0 -0.64079,0.12919 -0.29973,0.12402 -0.5271,0.3669 -0.22221,0.24288 -0.3514,0.59428 -0.12919,0.3514 -0.12919,0.80615 0,0.4961 0.12402,0.87334 0.12402,0.37723 0.34623,0.63562 0.22221,0.25321 0.53227,0.3824 0.31006,0.12919 0.67696,0.12919 z" />
        <path
           id="path5359"
           style="font-style:normal;font-variant:normal;font-weight:normal;font-stretch:normal;font-family:Arvo;-inkscape-font-specification:Arvo;fill:#e500ff;fill-opacity:1;stroke-width:0.26458332"
           d="m 191.74232,186.0445 h 0.75447 v -2.4443 q 0,-0.61494 -0.31522,-0.93017 -0.31006,-0.3204 -0.894,-0.3204 -0.3359,0 -0.67697,0.1602 -0.34106,0.1602 -0.64595,0.39791 v 3.13676 h 0.75448 v 0.88883 h -2.50114 v -0.88883 h 0.74414 v -3.57601 h -0.74414 v -0.88883 h 1.70532 v 0.63045 h 0.0103 q 0.17054,-0.14986 0.36174,-0.28422 0.19637,-0.13436 0.40824,-0.23255 0.21188,-0.0982 0.43925,-0.15503 0.23255,-0.0568 0.48576,-0.0568 0.42891,0 0.77515,0.11886 0.34623,0.11885 0.58911,0.36173 0.24288,0.24288 0.37207,0.62529 0.13436,0.37723 0.13436,0.894 v 2.56315 h 0.74414 v 0.88883 h -2.50114 z" />
        <path
           id="path5361"
           style="font-style:normal;font-variant:normal;font-weight:normal;font-stretch:normal;font-family:Arvo;-inkscape-font-specification:Arvo;fill:#e500ff;fill-opacity:1;stroke-width:0.26458332"
           d="m 198.43442,186.43724 q -0.30489,0.28422 -0.67696,0.46509 -0.36691,0.18087 -0.83716,0.18087 -0.39274,0 -0.72347,-0.12403 -0.32556,-0.12402 -0.56328,-0.33589 -0.23771,-0.21705 -0.37207,-0.50127 -0.12919,-0.28422 -0.12919,-0.60461 0,-0.34106 0.0982,-0.60461 0.10335,-0.26355 0.26872,-0.45476 0.17053,-0.19637 0.39274,-0.32556 0.22737,-0.13436 0.47025,-0.21187 0.24805,-0.0827 0.50126,-0.11369 0.25839,-0.0362 0.49093,-0.0362 0.37207,0 0.62528,0.0258 0.25322,0.0207 0.45992,0.062 l 0.005,-0.43925 q 0,-0.28422 -0.0827,-0.49093 -0.0827,-0.21187 -0.23254,-0.34623 -0.14987,-0.13953 -0.36174,-0.20671 -0.20671,-0.0672 -0.46509,-0.0672 -0.24288,0 -0.46509,0.0362 -0.2222,0.031 -0.41857,0.0879 -0.19121,0.0517 -0.35657,0.12402 -0.1602,0.0672 -0.27389,0.14469 l -0.31522,-0.66662 q 0.1912,-0.12402 0.41858,-0.22738 0.22737,-0.10852 0.47542,-0.18087 0.25321,-0.0775 0.5116,-0.11885 0.26355,-0.0465 0.51676,-0.0465 0.46509,0 0.83716,0.11369 0.37207,0.10852 0.63045,0.34106 0.25838,0.23255 0.39791,0.59428 0.13953,0.35657 0.13953,0.85783 l -0.005,2.67684 h 0.59428 v 0.88883 h -1.55546 z m -1.30225,-0.1602 q 0.1912,0 0.38241,-0.0465 0.1912,-0.0465 0.36173,-0.12402 0.17053,-0.0827 0.31523,-0.18603 0.14469,-0.10852 0.24288,-0.22221 l 0.005,-1.20923 h -1.11621 q -0.27905,0 -0.51159,0.062 -0.22738,0.062 -0.39791,0.18087 -0.16537,0.11885 -0.25838,0.29455 -0.093,0.1757 -0.093,0.40308 0,0.21187 0.0775,0.37207 0.0775,0.15503 0.21704,0.26355 0.1447,0.10335 0.34107,0.1602 0.19637,0.0517 0.43408,0.0517 z" />
        <path
           id="path5363"
           style="font-style:normal;font-variant:normal;font-weight:normal;font-stretch:normal;font-family:Arvo;-inkscape-font-specification:Arvo;fill:#e500ff;fill-opacity:1;stroke-width:0.26458332"
           d="m 201.03374,178.89248 h 1.73633 v 7.15202 h 0.80615 v 0.88883 h -2.54248 v -0.88883 h 0.77515 v -6.26318 h -0.77515 z" />
        <path
           id="path5365"
           style="font-style:normal;font-variant:normal;font-weight:normal;font-stretch:normal;font-family:Arvo;-inkscape-font-specification:Arvo;fill:#e500ff;fill-opacity:1;stroke-width:0.26458332"
           d="m 207.61732,183.01626 q 0,-0.21704 -0.10335,-0.3669 -0.0982,-0.15503 -0.25838,-0.24805 -0.1602,-0.0982 -0.35657,-0.13952 -0.19637,-0.0465 -0.38241,-0.0465 -0.2067,0 -0.3824,0.0465 -0.17053,0.0465 -0.29456,0.13435 -0.12402,0.0879 -0.19637,0.21704 -0.0672,0.12403 -0.0672,0.27906 0,0.26871 0.1602,0.42891 0.16536,0.15503 0.54777,0.28939 l 1.02836,0.36173 q 0.66146,0.22221 0.96635,0.60462 0.30489,0.3824 0.30489,0.91467 0,0.35657 -0.14469,0.65629 -0.13953,0.29456 -0.40308,0.50643 -0.25838,0.20671 -0.62528,0.3204 -0.36691,0.11885 -0.81649,0.11885 -0.62529,0 -1.01803,-0.20154 -0.39274,-0.20153 -0.60461,-0.53226 h -0.53744 v -0.88884 h 1.06971 q 0,0.22221 0.093,0.38241 0.0982,0.15503 0.25322,0.25321 0.1602,0.0982 0.35657,0.1447 0.20153,0.0465 0.40824,0.0465 0.20154,0 0.38757,-0.0465 0.18604,-0.0517 0.32556,-0.1447 0.1447,-0.0982 0.22738,-0.23254 0.0827,-0.13436 0.0827,-0.30489 0,-0.25839 -0.17053,-0.43925 -0.16536,-0.18087 -0.56844,-0.32556 l -1.02319,-0.38241 q -0.62529,-0.22221 -0.93018,-0.56327 -0.29972,-0.34624 -0.29972,-0.863 0,-0.34106 0.12402,-0.63045 0.12919,-0.28939 0.3669,-0.4961 0.24288,-0.21187 0.58911,-0.33073 0.34624,-0.11885 0.79065,-0.11885 0.57361,0 0.96119,0.1602 0.38757,0.16019 0.69763,0.54777 h 0.50126 v 0.88883 z" />
      </g>
    </g>
  </g>
</svg>
